# xmcd
# 
# Track frame offsets:
#     255
#     19468
#     53336
#     92499
#     126696
#     191751
#     218667
#     234019
# 
# Disc length: 3358
# 
# Revision: 1
# Processed by: cddbd v1.5.2PL0 Copyright (c) Steve Scherf et al.
# Submitted via: fre:ac v1.0.17
# 
DISCID=660d1b08
DTITLE=Wendy Saddington and the Copperwine - Live
DYEAR=1971
DGENRE=Blues
TTITLE0=Backlash Blues
TTITLE1=Just Like Tom Thumb's Blues
TTITLE2=Tomorrow Never Knows
TTITLE3=Five People Said I Was Crazy
TTITLE4=Blues In 'A'
TTITLE5=Looking Through A Window
TTITLE6=We Need A Song
TTITLE7=Looking Through A Window (edited version)
EXTD=
EXTT0=
EXTT1=
EXTT2=
EXTT3=
EXTT4=
EXTT5=
EXTT6=
EXTT7=
PLAYORDER=
